<svg id="Layer_1" data-name="Layer 1" xmlns="http://www.w3.org/2000/svg" xmlns:xlink="http://www.w3.org/1999/xlink" viewBox="0 0 400 465.09"><defs><style>.cls-1{fill:url(#linear-gradient);}.cls-2{fill:url(#linear-gradient-2);}.cls-3{font-size:187.43px;}.cls-3,.cls-4{fill:#fff;font-family:BAYBAYINCHOCHIN, BAYBAYIN CHOCHIN;}.cls-4{font-size:81.47px;}</style><linearGradient id="linear-gradient" x1="87" y1="230.64" x2="311.77" y2="233.18" gradientUnits="userSpaceOnUse"><stop offset="0" stop-color="#005499"/><stop offset="1" stop-color="#0276c4"/></linearGradient><linearGradient id="linear-gradient-2" x1="99.06" y1="224.85" x2="299.84" y2="227.11" xlink:href="#linear-gradient"/></defs><title>bookmark</title><path class="cls-1" d="M303.32,81.39v191a103.32,103.32,0,0,1-206.64,0v-191h-8v191A111.32,111.32,0,0,0,200,383.69h0A111.32,111.32,0,0,0,311.32,272.37v-191Z"/><path class="cls-2" d="M200,371.69a99.43,99.43,0,0,0,99.32-99.32v-191H100.68v191A99.43,99.43,0,0,0,200,371.69Z"/><text class="cls-3" transform="translate(129.92 280.45)">t</text><text class="cls-4" transform="translate(207.53 265.38)">O</text></svg>