<svg id="Layer_1" data-name="Layer 1" xmlns="http://www.w3.org/2000/svg" xmlns:xlink="http://www.w3.org/1999/xlink" viewBox="0 0 800 465.09"><defs><style>.cls-1{fill:url(#linear-gradient);}.cls-2{fill:url(#linear-gradient-2);}.cls-3{fill:url(#linear-gradient-3);}.cls-4{fill:url(#linear-gradient-4);}.cls-5{fill:url(#linear-gradient-5);}.cls-6{fill:url(#linear-gradient-6);}.cls-7{fill:url(#linear-gradient-7);}.cls-8{fill:url(#linear-gradient-8);}.cls-9{fill:url(#linear-gradient-9);}.cls-10{fill:url(#linear-gradient-10);}.cls-11{fill:url(#linear-gradient-11);}.cls-12{fill:url(#linear-gradient-12);}.cls-13{fill:url(#linear-gradient-13);}.cls-14{fill:url(#linear-gradient-14);}.cls-15{fill:url(#linear-gradient-15);}.cls-16{fill:url(#linear-gradient-16);}.cls-17{fill:url(#linear-gradient-17);}</style><linearGradient id="linear-gradient" x1="104.21" y1="172.67" x2="738.42" y2="179.81" gradientUnits="userSpaceOnUse"><stop offset="0" stop-color="#005499"/><stop offset="1" stop-color="#0276c4"/></linearGradient><linearGradient id="linear-gradient-2" x1="104.23" y1="171.07" x2="738.44" y2="178.22" xlink:href="#linear-gradient"/><linearGradient id="linear-gradient-3" x1="104.22" y1="171.33" x2="738.44" y2="178.48" xlink:href="#linear-gradient"/><linearGradient id="linear-gradient-4" x1="104.23" y1="170.77" x2="738.44" y2="177.91" xlink:href="#linear-gradient"/><linearGradient id="linear-gradient-5" x1="104.23" y1="171.03" x2="738.44" y2="178.18" xlink:href="#linear-gradient"/><linearGradient id="linear-gradient-6" x1="104.25" y1="168.92" x2="738.46" y2="176.07" xlink:href="#linear-gradient"/><linearGradient id="linear-gradient-7" x1="104.26" y1="168.34" x2="738.47" y2="175.49" xlink:href="#linear-gradient"/><linearGradient id="linear-gradient-8" x1="104.26" y1="167.77" x2="738.48" y2="174.92" xlink:href="#linear-gradient"/><linearGradient id="linear-gradient-9" x1="102.96" y1="283.61" x2="737.17" y2="290.76" xlink:href="#linear-gradient"/><linearGradient id="linear-gradient-10" x1="102.97" y1="282.68" x2="737.18" y2="289.83" xlink:href="#linear-gradient"/><linearGradient id="linear-gradient-11" x1="102.98" y1="281.74" x2="737.19" y2="288.89" xlink:href="#linear-gradient"/><linearGradient id="linear-gradient-12" x1="102.99" y1="280.87" x2="737.2" y2="288.02" xlink:href="#linear-gradient"/><linearGradient id="linear-gradient-13" x1="103" y1="280.22" x2="737.21" y2="287.37" xlink:href="#linear-gradient"/><linearGradient id="linear-gradient-14" x1="103.02" y1="278.25" x2="737.23" y2="285.4" xlink:href="#linear-gradient"/><linearGradient id="linear-gradient-15" x1="103.01" y1="278.93" x2="737.22" y2="286.08" xlink:href="#linear-gradient"/><linearGradient id="linear-gradient-16" x1="103.02" y1="277.76" x2="737.24" y2="284.91" xlink:href="#linear-gradient"/><linearGradient id="linear-gradient-17" x1="103.03" y1="277.01" x2="737.25" y2="284.16" xlink:href="#linear-gradient"/></defs><title>title</title><path class="cls-1" d="M204.24,160.41c0,19.15-20.46,19.34-22,19.34h-9.68v25.58a.75.75,0,0,1-.83.74H161.08a.81.81,0,0,1-.83-.74v-63.8a.82.82,0,0,1,.83-.75H182.2C184.8,140.78,204.24,141.15,204.24,160.41Zm-12.37,0c0-7.26-8.19-7.63-9.67-7.63h-9.68v15h9.68C183.87,167.75,191.87,167.57,191.87,160.41Z"/><path class="cls-2" d="M244.51,198.54H223.39l-2.51,6.88a.86.86,0,0,1-.83.46H208.61c-.75,0-1.12-.46-.84-1l25.39-65.47a1,1,0,0,1,1.67,0l25.39,65.47c.28.56-.09,1-.74,1H248a.84.84,0,0,1-.75-.46Zm-17.12-11h13.12L234,168Z"/><path class="cls-3" d="M265,187.66c0-.38.38-.66.93-.66H276.4c.47,0,.93.28.93.66.19,4.83,4,7.16,8.28,7.16s8.28-2.79,8.28-7.35c0-4.84-4.56-7.91-8.28-8.09a25.27,25.27,0,0,1-9.86-2.14A18.44,18.44,0,0,1,265,159.94c0-12.46,10-20,20.65-20,11.35,0,20.18,7.62,20.37,18.78a.86.86,0,0,1-.93.75H294.63a.93.93,0,0,1-.93-.75c-.18-4.65-3.81-6.88-8.09-6.88-4.56,0-8.28,2.6-8.28,8.09,0,4.74,4,7.81,8.28,7.81a24.58,24.58,0,0,1,9.67,2.14c7.07,3.26,10.88,10,10.88,17.58,0,12.55-10,19.34-20.55,19.34C274.17,206.53,265.15,199.93,265,187.66Z"/><path class="cls-4" d="M315.46,187.66c0-.38.38-.66.93-.66H326.9c.47,0,.93.28.93.66.19,4.83,4,7.16,8.28,7.16s8.28-2.79,8.28-7.35c0-4.84-4.56-7.91-8.28-8.09a25.24,25.24,0,0,1-9.86-2.14,18.44,18.44,0,0,1-10.79-17.3c0-12.46,10-20,20.65-20,11.35,0,20.18,7.62,20.37,18.78a.86.86,0,0,1-.93.75H345.13a.93.93,0,0,1-.93-.75c-.18-4.65-3.81-6.88-8.09-6.88-4.56,0-8.28,2.6-8.28,8.09,0,4.74,4,7.81,8.28,7.81a24.61,24.61,0,0,1,9.67,2.14c7.07,3.26,10.88,10,10.88,17.58,0,12.55-10,19.34-20.55,19.34C324.67,206.53,315.65,199.93,315.46,187.66Z"/><path class="cls-5" d="M428.74,207.93a.88.88,0,0,1-1.58,0l-19-50.31-18.88,50.31a1,1,0,0,1-1.68,0l-25.11-66.12c-.28-.56.19-1,.84-1h11.35a.86.86,0,0,1,.83.47l12.93,36.27,13.11-36.27a.75.75,0,0,1,.75-.47H414a.87.87,0,0,1,.84.47l13,36.27L441,141.25a.86.86,0,0,1,.83-.47H453.2c.74,0,1,.47.74,1Z"/><path class="cls-6" d="M523.69,173.24c0,16.65-10.79,33.48-32.08,33.48-21.67,0-32.28-16.83-32.28-33.48s10.61-33.39,32.28-33.39C512.9,139.85,523.69,156.59,523.69,173.24Zm-12.55.19c0-10.89-6.61-21.77-19.53-21.77-13.12,0-19.63,10.88-19.63,21.77S478.49,195,491.61,195C504.53,195,511.14,184.21,511.14,173.43Z"/><path class="cls-7" d="M555.12,179.56h-7v25.58a.85.85,0,0,1-.93.74h-10.6a.82.82,0,0,1-.84-.74V141.53a.82.82,0,0,1,.84-.75h21c3.72,0,22,.19,22,19.35,0,10-5.49,15.16-12,17.48,4.09,9.21,8.46,18.14,12.55,27.25.28.56-.09,1-.74,1H567.87a1.27,1.27,0,0,1-.84-.46Zm-7-11.9h9.48c2.7,0,9.68-.37,9.68-7.53s-7.72-7.54-9.68-7.54h-9.48Z"/><path class="cls-8" d="M603,140.78c15.72,0,37.76,3.72,37.76,32.37,0,27.62-21.67,32.73-37.76,32.73H592.51a.85.85,0,0,1-.93-.74V141.53a.85.85,0,0,1,.93-.75Zm.93,53.48c7.81.37,24.46-1.12,24.46-21.11,0-17.21-10.42-21.58-24.46-20.84Z"/><path class="cls-9" d="M142.06,277a1.07,1.07,0,0,1,1.09,1v47.3a1.07,1.07,0,0,1-1.09,1H130c-.61,0-1.21-.37-1.21-.85l-.48-7.84c-5.79,6.63-13.16,9.53-22.57,9.53-22.8,0-40.66-15.81-40.66-43.44,0-25.1,19.06-43.44,42.47-43.44a41.42,41.42,0,0,1,29.93,12.43.91.91,0,0,1,0,1.45l-9.66,9.65a1.26,1.26,0,0,1-1.56,0,26.47,26.47,0,0,0-18.71-7.84c-14.48,0-26.3,10.25-26.3,27.75,0,19.43,11.82,27.75,26.3,27.75A26,26,0,0,0,127,302.59v-11H113.34c-.72,0-1.2-.36-1.2-.84V278a1.1,1.1,0,0,1,1.2-1Z"/><path class="cls-10" d="M176.82,256.74v19.55h32.94a1,1,0,0,1,1.09,1v13.15a1,1,0,0,1-1.09,1H176.82v19.31h39.82a1.1,1.1,0,0,1,1.2,1v13.28a1.1,1.1,0,0,1-1.2,1H162a1.06,1.06,0,0,1-1.09-1V242.38a1.06,1.06,0,0,1,1.09-1h54.66a1.1,1.1,0,0,1,1.2,1v13.4a1.1,1.1,0,0,1-1.2,1Z"/><path class="cls-11" d="M302.43,324.92a1.1,1.1,0,0,1-1.2,1H287.47c-.24,0-.84-.12-1-.36l-38.62-56.23v55.63a1.06,1.06,0,0,1-1.08,1H233.05a1,1,0,0,1-1.09-1V242.26a1,1,0,0,1,1.09-1h13.88c.24,0,.72.12.84.36l38.74,56.71V242.26a1.1,1.1,0,0,1,1.2-1h13.52a1.1,1.1,0,0,1,1.2,1Z"/><path class="cls-12" d="M337.31,256.74v19.55h32.94a1,1,0,0,1,1.09,1v13.15a1,1,0,0,1-1.09,1H337.31v19.31h39.82a1.11,1.11,0,0,1,1.21,1v13.28a1.11,1.11,0,0,1-1.21,1H322.47a1.06,1.06,0,0,1-1.09-1V242.38a1.06,1.06,0,0,1,1.09-1h54.66a1.11,1.11,0,0,1,1.21,1v13.4a1.11,1.11,0,0,1-1.21,1Z"/><path class="cls-13" d="M417.31,291.74h-9.05v33.18a1.1,1.1,0,0,1-1.2,1H393.3a1.07,1.07,0,0,1-1.09-1V242.38a1.07,1.07,0,0,1,1.09-1h27.27c4.83,0,28.6.24,28.6,25.1,0,12.91-7.12,19.66-15.57,22.68,5.31,11.95,11,23.53,16.29,35.36.37.72-.12,1.32-1,1.32H433.84a1.62,1.62,0,0,1-1.08-.6Zm-9.05-15.45h12.31c3.5,0,12.55-.48,12.55-9.77s-10-9.78-12.55-9.78H408.26Z"/><path class="cls-14" d="M504,316.35h-27.4l-3.25,8.93a1.15,1.15,0,0,1-1.09.6H457.38c-1,0-1.45-.6-1.09-1.32l32.94-84.95a1.25,1.25,0,0,1,2.18,0l32.94,84.95c.36.72-.12,1.32-1,1.32h-15a1.1,1.1,0,0,1-1-.6Zm-22.21-14.24h17l-8.45-25.34Z"/><path class="cls-15" d="M570.45,255.66c0,.48-.49.84-1.21.84h-16v68.42a1,1,0,0,1-1.09,1H538.47a1,1,0,0,1-1.09-1V256.5h-16c-.72,0-1.2-.36-1.2-.84V243.11a1.1,1.1,0,0,1,1.2-1h47.91a1.11,1.11,0,0,1,1.21,1Z"/><path class="cls-16" d="M661.67,283.53c0,21.6-14,43.44-41.63,43.44-28.11,0-41.87-21.84-41.87-43.44s13.76-43.32,41.87-43.32C647.67,240.21,661.67,261.93,661.67,283.53Zm-16.29.24c0-14.12-8.57-28.23-25.34-28.23-17,0-25.46,14.11-25.46,28.23s8.45,28,25.46,28C636.81,311.77,645.38,297.77,645.38,283.77Z"/><path class="cls-17" d="M702.46,291.74h-9.05v33.18a1.1,1.1,0,0,1-1.21,1H678.45a1.06,1.06,0,0,1-1.09-1V242.38a1.06,1.06,0,0,1,1.09-1h27.27c4.82,0,28.6.24,28.6,25.1,0,12.91-7.12,19.66-15.57,22.68,5.31,11.95,11,23.53,16.29,35.36.36.72-.12,1.32-1,1.32H719a1.62,1.62,0,0,1-1.08-.6Zm-9.05-15.45h12.31c3.5,0,12.55-.48,12.55-9.77s-10-9.78-12.55-9.78H693.41Z"/></svg>